<svg fill="#000000" width="150px" height="150px" viewBox="-0.375 0 4.5 4.5" xmlns="http://www.w3.org/2000/svg"><path d="M3.475 1.687a3.113 3.113 0 0 0 -0.471 -0.513l-0.004 -0.003a0.071 0.071 0 0 0 -0.089 -0.014l0 0a0.062 0.062 0 0 0 -0.033 0.07v0l-0.003 -0.002c0.094 0.172 0.149 0.377 0.151 0.595v0c0.002 0.133 -0.007 0.226 -0.007 0.228a0.75 0.75 0 0 1 -0.011 0.054c-0.011 0.054 -0.085 0.214 -0.19 0.17s-0.111 -0.212 -0.111 -0.212h-0.002a2.58 2.58 0 0 0 -0.838 -1.772l-0.002 -0.002 -0.001 -0.001 -0.001 -0.001A2.006 2.006 0 0 0 1.557 0.061l-0.009 -0.005a0.188 0.188 0 0 1 -0.027 -0.015l0.001 0.001a0.262 0.262 0 0 0 -0.042 -0.022L1.478 0.019c-0.009 -0.005 -0.019 -0.009 -0.029 -0.013a0.079 0.079 0 0 0 -0.109 0.043l0 0.001a0.463 0.463 0 0 0 0.037 0.217l-0.001 -0.003C1.499 0.576 1.571 0.938 1.571 1.316c0 0.225 -0.026 0.445 -0.074 0.655l0.004 -0.02a0.287 0.287 0 0 1 -0.177 0.198l-0.002 0.001a0.238 0.238 0 0 1 -0.247 -0.157l-0.001 -0.002c-0.005 -0.013 -0.011 -0.026 -0.015 -0.041v-0.003c-0.09 -0.322 0.02 -0.805 0.098 -1.073 0.052 -0.199 -0.192 0 -0.192 0h-0.001q-0.072 0.061 -0.154 0.137v-0.002c-0.069 0.063 -0.16 0.15 -0.253 0.25 -0.051 0.054 -0.725 0.797 -0.515 1.811 0.209 0.826 0.945 1.428 1.823 1.428 0.953 0 1.74 -0.71 1.861 -1.629l0.001 -0.01c0.005 -0.037 0.009 -0.074 0.011 -0.111q0.001 -0.018 0.002 -0.036a1.926 1.926 0 0 0 -0.268 -1.034l0.005 0.009z"/></svg>