<svg version="1.1" id="Uploaded to svgrepo.com" xmlns="http://www.w3.org/2000/svg" xmlns:xlink="http://www.w3.org/1999/xlink" width="500px" height="500px" viewBox="0 0 20 20" xml:space="preserve"><style type="text/css">.stone_een{fill:#0B1719;}</style><path class="stone_een" d="M5.627 8.75a0.627 0.627 0 1 1 -1.257 0 0.627 0.627 0 0 1 1.257 0M18.537 3.14 17.493 2.793l0.493 -0.983A0.313 0.313 0 0 0 17.567 1.39l-0.983 0.493 -0.347 -1.043a0.313 0.313 0 0 0 -0.593 0l-0.347 1.043 -0.983 -0.493a0.313 0.313 0 0 0 -0.42 0.42l0.493 0.983 -1 0.333h-0.177a1 1 0 0 1 -0.97 -0.757L12.133 1.94a1.7 1.7 0 0 0 -1.16 -1.253 1.633 1.633 0 0 0 -1.92 0.903L8.65 2.5H9.333l0.293 -0.657a1 1 0 0 1 1.88 0.163l0.127 0.513a1.633 1.633 0 0 0 1.577 1.23h0.177l0.997 0.333 -0.493 0.983a0.313 0.313 0 0 0 0.42 0.42l0.983 -0.493 0.347 1.043a0.313 0.313 0 0 0 0.593 0l0.347 -1.043 0.983 0.493a0.313 0.313 0 0 0 0.42 -0.42l-0.493 -0.983 1.043 -0.347a0.313 0.313 0 0 0 0 -0.593m-2.283 8.733a7.5 7.5 0 0 1 -7.807 7.493A7.567 7.567 0 0 1 1.263 12.297a7.5 7.5 0 0 1 4.987 -7.487v-1.06a0.633 0.633 0 0 1 0.627 -0.627h3.75a0.633 0.633 0 0 1 0.627 0.627v1.06a7.5 7.5 0 0 1 5 7.063m-10 -3.127a1.25 1.25 0 1 0 -2.5 0 1.25 1.25 0 0 0 2.497 0.003"/></svg>