<?xml version="1.0" standalone="no"?>
<!DOCTYPE svg PUBLIC "-//W3C//DTD SVG 20010904//EN"
 "http://www.w3.org/TR/2001/REC-SVG-20010904/DTD/svg10.dtd">
<svg version="1.0" xmlns="http://www.w3.org/2000/svg"
 width="900px" height="900px" viewBox="0 0 1024 1024"
 preserveAspectRatio="xMidYMid meet">

<g transform="translate(0.000000,1024.000000) scale(0.100000,-0.100000)"
fill="#000000" stroke="none">
<path d="M5290 7831 c-46 -14 -89 -41 -140 -86 -47 -42 -55 -45 -105 -45 -30
0 -105 -7 -167 -14 -62 -8 -169 -20 -238 -26 -179 -17 -363 -46 -397 -63 -41
-22 -110 -97 -128 -139 -20 -48 -19 -87 5 -298 24 -204 43 -380 65 -575 8 -77
19 -174 25 -215 5 -41 12 -104 16 -140 8 -80 23 -106 71 -119 46 -13 123 -14
142 -2 16 10 12 103 -14 316 -7 66 -21 183 -30 260 -9 77 -27 236 -40 353 -30
260 -31 271 -2 312 44 65 55 69 308 101 203 25 409 47 409 44 0 -2 -155 -493
-199 -630 -21 -66 -84 -268 -140 -449 -100 -319 -102 -329 -84 -347 26 -26
148 -57 171 -43 17 10 51 110 238 694 242 755 256 793 290 828 47 47 89 44
302 -24 98 -31 269 -85 382 -121 428 -135 917 -303 955 -328 12 -7 29 -31 39
-52 l18 -40 -92 -294 c-50 -162 -106 -341 -125 -399 -57 -177 -205 -656 -205
-665 0 -4 39 -47 86 -96 l87 -88 24 67 c13 37 87 265 164 507 182 571 249 775
256 775 4 0 185 -124 302 -206 26 -19 51 -71 51 -108 0 -14 -21 -55 -46 -93
-54 -78 -102 -149 -429 -623 -130 -190 -242 -355 -247 -367 -9 -19 -2 -32 63
-103 70 -77 75 -80 90 -62 15 19 619 873 731 1035 98 140 113 233 58 344 -33
66 -67 98 -195 183 -44 29 -128 89 -188 133 -94 71 -109 86 -118 121 -24 90
-68 146 -145 184 -23 12 -99 43 -170 70 -115 43 -152 63 -344 193 -118 79
-251 164 -295 189 -70 40 -88 45 -153 49 -66 3 -79 0 -135 -28 l-62 -31 -210
65 c-336 105 -335 105 -410 104 -38 0 -81 -4 -95 -8z"/>
<path d="M5326 6548 c-14 -19 -16 -69 -16 -345 0 -308 -1 -323 -19 -333 -13
-7 -428 -10 -1271 -10 -1357 0 -1302 2 -1315 -53 -3 -12 -4 -321 -3 -685 l3
-664 24 -19 c23 -18 58 -19 1280 -19 1121 0 1259 -2 1279 -16 22 -15 22 -15
22 -350 0 -321 1 -335 20 -354 11 -11 27 -20 35 -20 17 0 1384 1370 1403 1407
11 20 11 31 1 56 -7 19 -209 231 -504 527 -270 272 -579 586 -685 698 -204
211 -223 225 -254 180z"/>
</g>
</svg>
