<?xml version="1.0" encoding="utf-8"?>
<!-- License: CC Attribution. Made by  Carol Liao: https://dribbble.com/thecarolizer -->
<svg version="1.1" id="Uploaded to svgrepo.com" xmlns="http://www.w3.org/2000/svg" xmlns:xlink="http://www.w3.org/1999/xlink" 
	 width="150px" height="150px" viewBox="0 0 32 32" xml:space="preserve">
<style type="text/css">
	.duotone_een{fill:#fff;}
	.duotone_twee{fill:#fff;}
</style>
<g>
	<g>
		<g>
			<path class="duotone_een" d="M24.461,8.042c-2.326-0.09-4.605-0.513-6.802-1.263C17.335,6.668,17,6.9,17,7.243v17.581
				c0,0.393,0.428,0.623,0.768,0.426c5.762-3.341,6.934-13.001,7.171-16.688C24.957,8.281,24.741,8.053,24.461,8.042z"/>
		</g>
		<g>
			<path class="duotone_een" d="M24.461,8.042c-2.326-0.09-4.605-0.513-6.802-1.263C17.335,6.668,17,6.9,17,7.243v17.581
				c0,0.393,0.428,0.623,0.768,0.426c5.762-3.341,6.934-13.001,7.171-16.688C24.957,8.281,24.741,8.053,24.461,8.042z"/>
		</g>
	</g>
	<path class="duotone_twee" d="M25.495,7.06c-0.016,0-0.033,0-0.05,0c-3.075,0.005-6.121-0.605-8.956-1.795l-0.295-0.124
		c-0.124-0.052-0.263-0.052-0.387,0l-0.311,0.13c-2.837,1.189-5.883,1.797-8.959,1.79l-0.028,0C6.225,7.06,6.002,7.289,6.011,7.573
		c0.091,2.761,0.938,15.84,8.857,19.103c0.722,0.297,1.543,0.297,2.265,0c7.919-3.263,8.766-16.342,8.857-19.103
		C25.998,7.289,25.779,7.06,25.495,7.06z M17.768,25.249C17.428,25.446,17,25.216,17,24.823V7.243c0-0.343,0.335-0.574,0.659-0.464
		c2.197,0.75,4.475,1.173,6.802,1.263c0.28,0.011,0.496,0.239,0.478,0.519C24.702,12.247,23.53,21.908,17.768,25.249z"/>
</g>
</svg>