<svg width="800" height="800" viewBox="0 0 32 32" xmlns="http://www.w3.org/2000/svg"><path d="M4.583 0H27.41a4 4 0 0 1-.001.444v-.01 22.852c0 .622-.186 1.2-.505 1.682l.007-.011a7.5 7.5 0 0 1-1.512 1.643l-.014.011a27.7 27.7 0 0 1-4.518 3.035l-.149.073c-1.526.803-3.084 1.606-4.699 2.281l-.803-.345c-1.719-.803-3.406-1.606-5.044-2.57a26 26 0 0 1-3.174-2.116l.058.043a8.5 8.5 0 0 1-1.941-2.004l-.018-.028a3.1 3.1 0 0 1-.514-1.685V.458zm.611.602v22.581c0 .583.193 1.121.519 1.554l-.005-.007a7.8 7.8 0 0 0 1.487 1.595l.015.012a25.7 25.7 0 0 0 3.536 2.342l.134.068a68 68 0 0 0 3.623 1.872l1.55.707 3.414-1.679a36 36 0 0 0 3.914-2.267l-.131.083a14 14 0 0 0 2.716-2.249l.007-.008a3.13 3.13 0 0 0 .876-2.176v-.043.002V.861a1 1 0 0 0 0-.246V.62z"/><path d="m6.447 22.49 9.566-5.125 9.55 5.125a2.51 2.51 0 0 1-.588 2.083l.003-.003a8.7 8.7 0 0 1-1.685 1.589l-.026.018a28 28 0 0 1-3.528 2.189l-.159.076a57 57 0 0 1-3.285 1.606.6.6 0 0 1-.558-.001l.003.002c-2.538-1.098-4.707-2.302-6.741-3.688l.139.089a11 11 0 0 1-1.702-1.405l-.001-.001a7.5 7.5 0 0 1-.626-.779l-.016-.025a2.3 2.3 0 0 1-.343-1.766zM25.579 1.767v8.554a2549 2549 0 0 1-9.566-4.956l-9.502 4.924h-.056V1.767z"/><path d="M25.579 18.121v1.012l-9.566-4.956-9.574 4.956v-1.012l9.574-5.125z"/><path d="M6.431 14.731v-1.004l9.582-5.133 9.566 5.125v1.012l-9.566-4.956z"/></svg>